<svg id="Capa_1" data-name="Capa 1" xmlns="http://www.w3.org/2000/svg" viewBox="0 0 128 94.76"><defs><style>.cls-1{fill:#fff;}</style></defs><path class="cls-1" d="M127.9,53.56a117.21,117.21,0,0,0-6.2-10.22c-10-13.61-23.15-22.24-39.82-25.58a58.94,58.94,0,0,0-31.33,2.3c-11.1,3.84-20.95,10-28.1,19.32-3.7,4.84-7.62,7.08-13.5,7-1.9,0-3.81,1.06-6.22,1.79l9.69,3.76-.15,1C8,53.1,3.86,53.8,0,56.86c2.73.7,4.94,1.34,7.18,1.8,4,.81,6.59,2.31,8,7,2.41,7.89,8.43,13,16.86,14.23,9.7,1.45,17.34-2.16,22.73-10.36,1.73-2.62,2-2.69,4.35-.48A62.62,62.62,0,0,1,71.61,84.61a60.83,60.83,0,0,1,7.56,21.79c.22,1.68.71,3.32,1.07,5,1.59-.82,3.43-1.35,4.71-2.51C91.38,103,94.6,96,92.19,87.15a4.36,4.36,0,0,1,.15-1.54L93,85.3,98.4,92c5.67-9.14,5-17.93-.18-26.88a37,37,0,0,1,4.4,2.45,16,16,0,0,0,2.38,1,10.82,10.82,0,0,0,.76-2.27c.78-7.37-1-13.9-6.42-19.2A18,18,0,0,1,97.89,45c11.58-.07,21.16,3.68,30,10.64C127.93,54.48,128.1,53.91,127.9,53.56ZM48.49,69.71c-3.36.59-5.76-.62-7.41-3.69-1.06-2-2.61-3.66-3.8-5.57s-2-1.54-3.2-.06c-2.15,2.65-4.43,5.21-6.72,7.75a12.91,12.91,0,0,1-2,1.53l-.71-.75c1.05-1.34,2.07-2.7,3.16-4,1.88-2.23,3.92-4.34,5.64-6.68a3.33,3.33,0,0,0,.17-3c-2.54-4-5.32-7.85-8-11.78a9.83,9.83,0,0,1-.76-2,15.23,15.23,0,0,1,2-.59c3.43-.5,6.11.25,7.79,3.76,1.1,2.28,2.9,4.22,4.63,6.67,3.33-3.65,6.48-7.13,9.63-10.59l.91.69a16,16,0,0,1-1.34,2.28c-2,2.38-3.91,4.79-6.07,7-1.71,1.75-1.53,3.22-.21,5,2.63,3.65,5.13,7.39,7.63,11.13A11,11,0,0,1,50.73,69,18,18,0,0,1,48.49,69.71Z" transform="translate(0 -16.62)"/><path d="M49.88,66.82c-2.5-3.74-5-7.48-7.63-11.13-1.32-1.83-1.5-3.3.21-5,2.16-2.2,4.09-4.61,6.07-7a16,16,0,0,0,1.34-2.28L49,40.68c-3.15,3.46-6.3,6.94-9.63,10.59-1.73-2.45-3.53-4.39-4.63-6.67-1.68-3.51-4.36-4.26-7.79-3.76a15.23,15.23,0,0,0-2,.59,9.83,9.83,0,0,0,.76,2c2.65,3.93,5.43,7.78,8,11.78a3.33,3.33,0,0,1-.17,3c-1.72,2.34-3.76,4.45-5.64,6.68-1.09,1.3-2.11,2.66-3.16,4l.71.75a12.91,12.91,0,0,0,2-1.53c2.29-2.54,4.57-5.1,6.72-7.75,1.21-1.48,2.08-1.76,3.2.06S40,64.05,41.08,66c1.65,3.07,4.05,4.28,7.41,3.69A18,18,0,0,0,50.73,69,11,11,0,0,0,49.88,66.82Zm-6.76-1.14c-2.81-3.93-5.53-7.92-8.29-11.89C33,51.2,31.16,48.64,29.39,46a18.54,18.54,0,0,1-1.23-2.58c2.18-1.18,3.32,0,4.25,1.31,3.93,5.59,7.8,11.21,11.7,16.82l3.63,5.23C45.3,68.33,44.11,67.06,43.12,65.68Z" transform="translate(0 -16.62)"/><path class="cls-1" d="M47.74,66.8c-2.44,1.53-3.63.26-4.62-1.12-2.81-3.93-5.53-7.92-8.29-11.89C33,51.2,31.16,48.64,29.39,46a18.54,18.54,0,0,1-1.23-2.58c2.18-1.18,3.32,0,4.25,1.31,3.93,5.59,7.8,11.21,11.7,16.82Z" transform="translate(0 -16.62)"/></svg>